<svg width="46" height="46" fill="currentColor" viewBox="0 0 24 24" xmlns="http://www.w3.org/2000/svg">
  <path d="M21.431 10.197c.117.671.175 1.352.174 2.033 0 3.042-1.088 5.615-2.98 7.356h.003C16.973 21.115 14.698 22 12 22a10 10 0 1 1 0-20 9.611 9.611 0 0 1 6.69 2.602l-2.855 2.855A5.434 5.434 0 0 0 12 5.957c-2.609 0-4.825 1.76-5.615 4.13a5.99 5.99 0 0 0 0 3.829h.004c.793 2.366 3.006 4.126 5.615 4.126 1.347 0 2.505-.345 3.402-.955h-.004a4.628 4.628 0 0 0 2-3.038H12v-3.85h9.431v-.002Z"></path>
</svg>